<?xml version="1.0" encoding="UTF-8"?>
<!DOCTYPE svg PUBLIC "-//W3C//DTD SVG 1.1//EN" "http://www.w3.org/Graphics/SVG/1.1/DTD/svg11.dtd">
<!-- Creator: CorelDRAW X7 -->
<svg xmlns="http://www.w3.org/2000/svg" xml:space="preserve" width="1282px" height="642px" version="1.1" style="shape-rendering:geometricPrecision; text-rendering:geometricPrecision; image-rendering:optimizeQuality; fill-rule:evenodd; clip-rule:evenodd"
viewBox="0 0 1282 642"
 xmlns:xlink="http://www.w3.org/1999/xlink">
 <defs>
  <style type="text/css">
   <![CDATA[
    .str0 {stroke:#2B2A29;stroke-width:2.36154}
    .str1 {stroke:#FEFEFE;stroke-width:0.899747}
    .fil2 {fill:none;fill-rule:nonzero}
    .fil0 {fill:black}
    .fil3 {fill:white}
    .fil1 {fill:white;fill-rule:nonzero}
   ]]>
  </style>
 </defs>
 <g id="Layer_x0020_1">
  <metadata id="CorelCorpID_0Corel-Layer"/>
  <g id="_1938536399056">
   <rect class="fil0 str0" x="1" y="1" width="1280" height="640"/>
   <g>
    <path class="fil1" d="M516 263l20 -2c1,7 4,12 7,16 4,3 9,5 15,5 7,0 12,-2 15,-5 3,-3 5,-6 5,-10 0,-3 -1,-5 -2,-7 -1,-2 -4,-3 -7,-5 -3,0 -8,-2 -17,-4 -11,-3 -18,-7 -23,-11 -6,-6 -9,-14 -9,-22 0,-6 1,-11 4,-16 3,-5 8,-8 13,-11 6,-2 12,-4 20,-4 13,0 22,3 29,9 6,6 9,14 10,25l-21 0c-1,-5 -3,-9 -5,-12 -3,-2 -8,-3 -13,-3 -6,0 -11,1 -14,4 -2,1 -3,3 -3,6 0,3 1,5 3,7 2,2 8,5 18,7 10,3 18,5 22,8 5,3 9,7 12,11 2,5 4,11 4,18 0,6 -2,12 -5,17 -3,6 -8,10 -14,12 -6,3 -13,4 -22,4 -13,0 -23,-3 -29,-9 -7,-6 -11,-16 -13,-28z"/>
    <polygon id="1" class="fil1" points="639,298 639,208 609,208 609,189 689,189 689,208 659,208 659,298 "/>
    <path id="2" class="fil1" d="M703 298l0 -109 43 0c10,0 18,1 23,3 5,2 9,6 12,11 3,5 5,10 5,17 0,8 -3,15 -7,20 -5,5 -11,9 -20,10 4,3 8,6 11,9 3,4 6,10 11,18l13 21 -25 0 -14 -23c-6,-9 -9,-14 -11,-16 -2,-3 -4,-4 -6,-5 -3,-1 -6,-1 -11,-1l-4 0 0 45 -20 0zm20 -63l15 0c10,0 16,0 19,-1 2,-1 4,-2 5,-5 2,-2 2,-4 2,-8 0,-3 -1,-6 -2,-9 -2,-2 -5,-3 -8,-4 -2,0 -7,0 -15,0l-16 0 0 27z"/>
    <polygon id="3" class="fil1" points="805,298 805,189 880,189 880,208 825,208 825,232 876,232 876,250 825,250 825,280 882,280 882,298 "/>
    <path id="4" class="fil1" d="M991 298l-23 0 -8 -24 -41 0 -8 24 -22 0 39 -109 22 0 41 109zm-38 -43l-14 -40 -14 40 28 0z"/>
    <polygon id="5" class="fil1" points="1001,298 1001,189 1032,189 1050,264 1068,189 1099,189 1099,298 1080,298 1080,212 1060,298 1040,298 1020,212 1020,298 "/>
    <path id="6" class="fil2 str1" d="M516 263l20 -2c1,7 4,12 7,16 4,3 9,5 15,5 7,0 12,-2 15,-5 3,-3 5,-6 5,-10 0,-3 -1,-5 -2,-7 -1,-2 -4,-3 -7,-5 -3,0 -8,-2 -17,-4 -11,-3 -18,-7 -23,-11 -6,-6 -9,-14 -9,-22 0,-6 1,-11 4,-16 3,-5 8,-8 13,-11 6,-2 12,-4 20,-4 13,0 22,3 29,9 6,6 9,14 10,25l-21 0c-1,-5 -3,-9 -5,-12 -3,-2 -8,-3 -13,-3 -6,0 -11,1 -14,4 -2,1 -3,3 -3,6 0,3 1,5 3,7 2,2 8,5 18,7 10,3 18,5 22,8 5,3 9,7 12,11 2,5 4,11 4,18 0,6 -2,12 -5,17 -3,6 -8,10 -14,12 -6,3 -13,4 -22,4 -13,0 -23,-3 -29,-9 -7,-6 -11,-16 -13,-28z"/>
    <polygon id="7" class="fil2 str1" points="639,298 639,208 609,208 609,189 689,189 689,208 659,208 659,298 "/>
    <path id="8" class="fil2 str1" d="M703 298l0 -109 43 0c10,0 18,1 23,3 5,2 9,6 12,11 3,5 5,10 5,17 0,8 -3,15 -7,20 -5,5 -11,9 -20,10 4,3 8,6 11,9 3,4 6,10 11,18l13 21 -25 0 -14 -23c-6,-9 -9,-14 -11,-16 -2,-3 -4,-4 -6,-5 -3,-1 -6,-1 -11,-1l-4 0 0 45 -20 0zm20 -63l15 0c10,0 16,0 19,-1 2,-1 4,-2 5,-5 2,-2 2,-4 2,-8 0,-3 -1,-6 -2,-9 -2,-2 -5,-3 -8,-4 -2,0 -7,0 -15,0l-16 0 0 27z"/>
    <polygon id="9" class="fil2 str1" points="805,298 805,189 880,189 880,208 825,208 825,232 876,232 876,250 825,250 825,280 882,280 882,298 "/>
    <path id="10" class="fil2 str1" d="M991 298l-23 0 -8 -24 -41 0 -8 24 -22 0 39 -109 22 0 41 109zm-38 -43l-14 -40 -14 40 28 0z"/>
    <polygon id="11" class="fil2 str1" points="1001,298 1001,189 1032,189 1050,264 1068,189 1099,189 1099,298 1080,298 1080,212 1060,298 1040,298 1020,212 1020,298 "/>
    <polygon class="fil1" points="563,453 518,334 546,334 578,422 608,334 636,334 591,453 "/>
    <polygon id="1" class="fil1" points="648,453 648,334 673,334 673,453 "/>
    <path id="2" class="fil1" d="M691 414l25 -2c1,8 4,14 9,17 4,4 10,6 18,6 8,0 14,-2 18,-5 5,-3 7,-7 7,-12 0,-2 -1,-5 -3,-7 -2,-2 -5,-3 -9,-5 -3,-1 -10,-3 -20,-5 -14,-3 -24,-7 -29,-12 -8,-6 -12,-14 -12,-24 0,-6 2,-11 6,-17 3,-5 9,-9 16,-12 6,-2 15,-4 24,-4 16,0 28,3 36,10 8,7 12,15 13,26l-26 1c-1,-6 -3,-10 -7,-13 -4,-3 -9,-4 -16,-4 -7,0 -13,1 -17,4 -3,2 -4,5 -4,8 0,3 1,5 4,7 3,2 11,5 23,8 12,3 21,5 27,8 6,3 11,7 14,12 4,6 5,12 5,19 0,7 -2,13 -6,19 -4,6 -9,11 -17,14 -7,3 -16,4 -27,4 -16,0 -28,-3 -37,-10 -9,-7 -14,-17 -15,-31z"/>
    <polygon id="3" class="fil1" points="814,453 814,334 840,334 840,453 "/>
    <path id="4" class="fil1" d="M859 394c0,-12 2,-22 5,-30 3,-6 7,-12 12,-16 5,-5 10,-9 16,-11 8,-3 17,-5 28,-5 18,0 33,6 44,16 11,11 17,26 17,46 0,19 -6,34 -17,45 -11,11 -25,16 -44,16 -19,0 -34,-5 -45,-16 -11,-11 -16,-26 -16,-45zm26 -1c0,14 3,24 10,31 6,7 15,10 25,10 10,0 18,-3 25,-10 7,-7 10,-17 10,-31 0,-13 -3,-24 -10,-30 -6,-7 -15,-10 -25,-10 -11,0 -19,3 -26,10 -6,7 -9,17 -9,30z"/>
    <polygon id="5" class="fil1" points="1001,453 1001,334 1026,334 1078,414 1078,334 1101,334 1101,453 1076,453 1025,375 1025,453 "/>
   </g>
   <path class="fil3" d="M311 337c40,-7 72,24 77,57 5,40 -24,72 -57,76 -41,5 -72,-23 -77,-57 -5,-38 20,-70 57,-76zm-50 -9c-16,0 -33,0 -49,0 -9,0 -17,-1 -23,3 -5,3 -8,9 -8,16l0 110c0,12 8,20 15,20l212 0c10,0 17,-9 17,-19l0 -111c0,-9 -5,-17 -14,-18 -7,-1 -24,-1 -32,-1 -1,-4 -8,-20 -10,-23 -4,-4 -5,-6 -11,-7 -4,-1 -4,0 -7,0l-21 0c-6,0 -44,-1 -50,1 -4,1 -7,4 -9,7 -2,2 -9,19 -10,22z"/>
   <path class="fil3" d="M221 210c5,7 11,9 14,14 2,-1 3,-2 4,-3l3 -4c7,-6 19,-16 28,-20 7,-3 15,-6 23,-8 26,-6 55,-3 77,8 8,4 32,18 35,27 3,-1 5,-4 7,-6 3,-3 6,-4 7,-7 -1,-6 -12,-15 -17,-18 -7,-6 -14,-10 -22,-14 -54,-27 -119,-14 -159,31z"/>
   <path class="fil3" d="M318 376c34,-4 43,50 6,55 -35,4 -43,-50 -6,-55zm-3 -17c-22,3 -41,23 -38,51 2,21 24,42 49,38 23,-3 42,-23 39,-50 -3,-22 -24,-43 -50,-39z"/>
   <path class="fil3" d="M253 239c0,3 0,1 2,3 1,2 2,2 3,4 2,3 4,5 7,6 7,-4 9,-9 21,-15 25,-13 58,-10 80,7 4,3 7,6 11,8l13 -13c-5,-4 -14,-15 -29,-22 -25,-10 -55,-13 -80,0 -6,3 -11,6 -16,9 -4,3 -10,9 -12,13z"/>
   <path class="fil3" d="M282 268c1,6 9,8 13,14 10,-7 21,-17 40,-8 2,1 4,2 6,4l5 4c3,-2 5,-4 7,-7 3,-3 6,-3 7,-7 -5,-7 -24,-16 -37,-16 -12,0 -25,2 -34,10 -3,2 -5,3 -7,6z"/>
   <path class="fil3" d="M208 318l0 4 36 0c0,-15 -2,-13 -27,-13 -5,0 -9,3 -9,9z"/>
  </g>
 </g>
</svg>
