<svg width="701" height="781" viewBox="0 0 701 781" fill="none" xmlns="http://www.w3.org/2000/svg">
<path d="M351.344 0C392.969 14.8157 524.053 56.2997 698.455 103.71C713.271 421.19 658.241 541.832 571.463 639.192C502.191 716.912 394.142 765.971 349.516 780.902V781C349.468 780.984 349.42 780.967 349.371 780.951C349.323 780.967 349.276 780.984 349.228 781V780.902C304.611 765.971 198.669 716.913 129.397 639.192C42.6191 541.832 -12.4111 421.189 2.4046 103.71C176.806 56.2998 309.719 14.8158 351.344 0ZM145.41 119.985V617.959H248.19V342.668C248.19 331.953 248.003 321.237 247.636 310.522L438.18 606.315L445.681 617.959H550.692V119.985H447.286V397.782C447.286 406.944 447.455 416.725 447.788 427.119L257.29 131.622L249.789 119.985H145.41ZM472.685 145.384V397.782C472.685 400.232 472.697 402.732 472.722 405.281C472.71 404.035 472.7 402.801 472.694 401.579L472.684 397.782V145.384H472.685Z" fill="white"/>
</svg>
