<?xml version="1.0" encoding="UTF-8"?>
<!DOCTYPE svg PUBLIC "-//W3C//DTD SVG 1.1//EN" "http://www.w3.org/Graphics/SVG/1.1/DTD/svg11.dtd">
<!-- Creator: CorelDRAW X7 -->
<svg xmlns="http://www.w3.org/2000/svg" xml:space="preserve" width="14.0187mm" height="15.5837mm" version="1.1" style="shape-rendering:geometricPrecision; text-rendering:geometricPrecision; image-rendering:optimizeQuality; fill-rule:evenodd; clip-rule:evenodd"
viewBox="0 0 1828 2032"
 xmlns:xlink="http://www.w3.org/1999/xlink">
 <defs>
  <style type="text/css">
   <![CDATA[
    .fil1 {fill:#00B8DB}
    .fil0 {fill:#FEFEFD}
   ]]>
  </style>
 </defs>
 <g id="Layer_x0020_1">
  <metadata id="CorelCorpID_0Corel-Layer"/>
  <path class="fil0" d="M12 274c-29,462 -25,904 255,1300 134,188 307,328 520,419 123,52 130,52 251,0 610,-262 852,-876 777,-1720 -161,-28 -827,-272 -898,-273 -35,-1 -381,112 -447,134 -136,45 -327,111 -458,140z"/>
  <path class="fil1" d="M1053 1266l25 23c43,46 86,95 137,145 77,76 61,117 166,113l-1 -1217 -247 4 -1 654c-46,-23 -128,-133 -173,-181l-397 -451c-35,-45 -37,-53 -115,-51l4 1219 246 -2 2 -639 354 383z"/>
 </g>
</svg>
